<svg id="Capa_1" enable-background="new 0 0 512 512" height="512" viewBox="0 0 512 512" width="512" xmlns="http://www.w3.org/2000/svg"><g><g><path d="m241 0c-24.901 0-45 20.099-45 45s20.099 45 45 45 45-20.099 45-45-20.099-45-45-45zm0 60c-8.401 0-15-6.599-15-15s6.599-15 15-15 15 6.599 15 15-6.599 15-15 15z" fill="#ffe6b3"/></g><path d="m286 45c0 24.901-20.099 45-45 45v-30c8.401 0 15-6.599 15-15s-6.599-15-15-15v-30c24.901 0 45 20.099 45 45z" fill="#ffca80"/><g><g><g><path d="m331 60h-180c-24.901 0-45 20.099-45 45v272c0 24.899 20.099 45 45 45h180c24.901 0 45-20.101 45-45v-272c0-24.901-20.099-45-45-45z" fill="#fff7cc"/></g></g></g><path d="m376 105v272c0 24.899-20.099 45-45 45h-90v-362h90c24.901 0 45 20.099 45 45z" fill="#ffe6b3"/><g><path d="m406 482v30h-105c-24.6 0-46.199-11.7-60-30-9.3-12.301-15-28.2-15-45v-60h30v60c0 24.899 20.099 45 45 45z" fill="#fff7cc"/></g><path d="m406 482v30h-105c-24.6 0-46.199-11.7-60-30v-105h15v60c0 24.899 20.099 45 45 45z" fill="#ffe6b3"/><path d="m301 120c-24.741 0-48.765 8.762-60 13.521-3.887 1.646-6.292 2.825-6.599 2.979-.3.3-27.301 13.5-53.401 13.5-17.401 0-35.099-5.7-45-9.6v236.6c0 8.399 6.599 15 15 15h90 90c8.401 0 15-6.601 15-15v-248.901c-12.299-4.199-28.2-8.099-45-8.099z" fill="#f9b"/><path d="m346 377v-248.901c-12.299-4.199-28.2-8.099-45-8.099-24.741 0-48.765 8.762-60 13.521v258.479h90c8.401 0 15-6.601 15-15z" fill="#f69"/><g><path d="m313.466 244.398c-5.464-19.658-22.925-33.398-42.466-33.398-10.928 0-21.46 3.618-30 9.961-8.54-6.343-19.072-9.961-30-9.961-19.526 0-36.958 13.667-42.407 33.252-4.336 15.601-6.724 56.558 64.658 99.595l7.749 4.673 7.734-4.673c71.426-43.023 69.068-83.877 64.732-99.449z" fill="#fff7cc"/></g><g><path d="m313.466 244.398c-5.464-19.658-22.925-33.398-42.466-33.398-10.928 0-21.46 3.618-30 9.961v127.559l7.734-4.673c71.426-43.023 69.068-83.877 64.732-99.449z" fill="#ffe6b3"/></g></g></svg>