<svg id="Capa_1" enable-background="new 0 0 512 512" height="512" viewBox="0 0 512 512" width="512" xmlns="http://www.w3.org/2000/svg"><g><path d="m453.317 24.694h-394.634c-28.268 0-51.183 22.915-51.183 51.183v245.51c0 28.268 22.915 51.183 51.183 51.183h111.569c6.634 0 12.765 3.534 16.09 9.275l56.788 98.044c5.729 9.891 20.01 9.891 25.739 0l56.788-98.044c3.325-5.74 9.456-9.275 16.09-9.275h111.569c28.268 0 51.183-22.915 51.183-51.183v-245.51c.001-28.268-22.914-51.183-51.182-51.183z" fill="#f0f7ff"/><g><g><g><g><g><g><path d="m305.74 143.001-3.23.014-.016-3.793-.038-9.066c-.054-12.802-5.362-25.184-15.098-33.496-7.633-6.517-18.348-12.188-32.471-12.286-14.122.217-24.788 5.978-32.366 12.559-9.666 8.394-14.869 20.821-14.815 33.622l.038 9.067.016 3.793-3.23.014c-4.735.02-8.558 3.875-8.538 8.61l.04 9.502c.02 4.735 3.875 8.558 8.61 8.538l3.243-.014c.32 12.443 5.599 24.398 15.081 32.493 7.633 6.517 18.348 12.188 32.471 12.286 14.122-.217 24.789-5.978 32.366-12.559 9.413-8.174 14.592-20.174 14.806-32.619l3.243-.014c4.735-.02 8.558-3.875 8.538-8.61l-.04-9.502c-.019-4.737-3.874-8.559-8.61-8.539z" fill="#ffddce"/></g></g></g></g></g></g><path d="m288.881 234.358c-3.812-.478-6.678-3.707-6.694-7.549l-.147-34.948-53.398.225.147 34.948c.016 3.842-2.823 7.095-6.63 7.605 0 0-9.86 33.699 33.503 33.516s33.219-33.797 33.219-33.797z" fill="#ffddce"/><path d="m314.351 151.539c-.02-4.735-3.875-8.558-8.61-8.538l-3.23.014-.016-3.793-.038-9.067c-.054-12.802-5.362-25.184-15.098-33.496-7.633-6.517-18.348-12.188-32.471-12.286-1.174.018-2.316.088-3.442.18l.123 85.112c-.215 12.445-5.393 24.445-14.806 32.619-2.107 1.829-4.461 3.589-7.053 5.19 6.826 4.213 15.354 7.297 25.729 7.369 14.122-.217 24.789-5.978 32.366-12.559 9.413-8.174 14.591-20.174 14.806-32.619l3.243-.014c4.735-.02 8.558-3.875 8.538-8.61z" fill="#ffcbbe"/><path d="m273.325 81.474-37.239.157c-6.785.029-12.535 4.394-14.641 10.458-.782 2.253-2.816 3.83-5.201 3.84l-.176.001c-8.667.037-15.663 7.092-15.626 15.758l.138 32.721s11.717-.189 17.205 3.372c2.835 1.84 7.038-.201 7.022-3.924l-.088-14.672c-.024-5.734 4.6-10.403 10.334-10.435l.14-.001c6.652-.028 9.38 3 17.899 2.964l1.835-.008c11.214-.047 13.056-3.094 19.893-3.123 5.744-.032 10.424 4.603 10.449 10.347l.088 14.652c.015 3.593 3.979 5.791 7.075 3.801 5.518-3.547 17.268-3.435 17.268-3.435l-.112-26.52c-.086-19.939-16.32-36.037-36.263-35.953z" fill="#6b61b1"/><path d="m309.586 117.43c-.084-19.942-16.319-36.041-36.261-35.956l-21.885.092.058 40.117c.509.022 1.037.034 1.593.032l1.835-.008c11.214-.047 13.056-3.094 19.893-3.123 5.744-.032 10.424 4.603 10.449 10.347l.088 14.652c.015 3.593 3.979 5.791 7.075 3.801 5.518-3.547 17.268-3.435 17.268-3.435z" fill="#5e54ac"/><path d="m262.701 381.844-38.179 65.916 18.609 32.128c5.729 9.891 20.01 9.891 25.739 0l56.788-98.044c3.325-5.741 9.456-9.275 16.09-9.275h-62.956c-6.634 0-12.766 3.534-16.091 9.275z" fill="#e0f2ff"/><path d="m453.317 24.694h-62.956c28.268 0 51.183 22.915 51.183 51.183v245.51c0 28.268-22.915 51.183-51.183 51.183h62.956c28.268 0 51.183-22.915 51.183-51.183v-245.51c0-28.268-22.915-51.183-51.183-51.183z" fill="#e0f2ff"/><path d="m504.5 307.787c-4.143 0-7.5 3.358-7.5 7.5v6.098c0 24.087-19.596 43.683-43.683 43.683h-111.569c-9.278 0-17.931 4.987-22.581 13.016l-56.788 98.044c-2.843 4.909-9.919 4.901-12.758 0l-56.788-98.044c-4.65-8.028-13.302-13.016-22.58-13.016h-111.57c-24.087 0-43.683-19.596-43.683-43.683v-245.51c0-24.086 19.596-43.683 43.683-43.683h6.359c4.142 0 7.5-3.358 7.5-7.5s-3.358-7.5-7.5-7.5h-6.359c-32.358 0-58.683 26.325-58.683 58.683v245.51c0 32.358 26.325 58.683 58.683 58.683h111.569c3.944 0 7.623 2.121 9.601 5.534l56.788 98.043c8.614 14.872 30.093 14.893 38.719 0l56.788-98.044c1.977-3.414 5.655-5.534 9.601-5.534h111.569c32.357 0 58.683-26.325 58.683-58.683v-6.098c-.001-4.141-3.358-7.499-7.501-7.499z"/><path d="m453.317 17.192h-353.212c-4.142 0-7.5 3.358-7.5 7.5s3.358 7.5 7.5 7.5h353.212c24.087 0 43.683 19.596 43.683 43.683v205.328c0 4.142 3.357 7.5 7.5 7.5s7.5-3.358 7.5-7.5v-205.328c0-32.358-26.325-58.683-58.683-58.683z"/><path d="m356.688 277.625c0-14.631-7.714-27.152-21.106-33.048-12.234-5.385-35.332-8.793-46.702-10.22l-.068.085c-17.057 21.336-49.472 21.432-66.654.196-11.358 1.523-34.426 5.125-46.614 10.613-13.249 5.97-20.618 19.335-20.218 33.065v27.453c0 8.737 7.082 15.819 15.819 15.819h169.722c8.744 0 15.829-7.098 15.819-15.842z" fill="#e28086"/><path d="m335.583 244.577c-12.234-5.385-35.332-8.793-46.702-10.22l-.068.085c-3.947 4.937-8.722 8.722-13.935 11.383 11.808 6.303 18.546 18.128 18.546 31.799l-.002 28.123c.01 8.744-7.075 15.842-15.819 15.842h63.265c8.744 0 15.829-7.098 15.819-15.842l.002-28.123c-.001-14.631-7.714-27.152-21.106-33.047z" fill="#dd636e"/><path d="m338.604 237.713c-12.922-5.689-36.109-9.205-48.784-10.796-.002 0-.004-.001-.006-.001-.074-.009-.127-.068-.127-.139l-.069-16.322c1.052-.802 2.091-1.63 3.103-2.509 9.098-7.9 15.029-19.021 16.823-31.227 6.99-1.651 12.379-7.974 12.347-15.71l-.04-9.502c-.018-4.299-1.738-8.302-4.668-11.247l-.096-22.861c-.101-23.752-19.326-43.425-43.604-43.425-.062 0-.126 0-.189 0l-37.239.157c-9.356.039-17.747 5.75-21.256 14.337-12.212.697-21.909 10.879-21.856 23.252l.122 29.063c-2.905 2.969-4.591 6.987-4.573 11.286l.04 9.502c.032 7.717 5.457 14.009 12.479 15.605 1.896 12.191 7.921 23.261 17.085 31.084 1.02.87 2.065 1.69 3.124 2.482l.069 16.323c0 .071-.053.129-.126.139h-.001c-12.659 1.697-35.82 5.41-48.699 11.208-15.438 6.957-25.098 22.652-24.636 40.008v27.349c0 12.858 10.461 23.319 23.319 23.319h169.722c6.232 0 12.091-2.429 16.497-6.84 4.407-4.412 6.83-10.275 6.822-16.501l.002-28.123c-.001-17.939-9.565-32.86-25.585-39.911zm-122.515-134.283h.188c5.493-.023 10.417-3.592 12.253-8.88 1.121-3.227 4.169-5.404 7.587-5.418l37.239-.157h.122c15.719 0 28.541 12.755 28.607 28.489l.082 19.421c-2.933.347-6.281.964-9.341 2.06l-.06-10.042c-.041-9.866-8.042-17.816-17.877-17.816-.034 0-.069 0-.103 0-4.05.017-6.885.842-9.387 1.57-6.634 1.93-13.566 2.221-20.331.244-2.671-.78-5.661-1.639-9.904-1.647h-.155c-9.852.055-17.833 8.114-17.792 17.98l.061 10.065c-3.03-1.069-6.333-1.666-9.229-1.995l-.108-25.645c-.018-4.52 3.642-8.21 8.148-8.229zm-.706 66.442c-.104-4.067-3.432-7.308-7.497-7.308-.011 0-.021 0-.032 0l-3.243.014c-.001 0-.003 0-.004 0-.59 0-1.072-.479-1.074-1.07l-.04-9.501c0-.009.004-.017.004-.026 3.769.218 8.397.918 10.207 2.093 1.944 1.261 4.181 1.896 6.438 1.896 2.003 0 4.022-.5 5.866-1.507 3.905-2.131 6.319-6.208 6.3-10.651l-.088-14.657c-.006-1.471 1.109-2.904 3.067-2.904 2 0 3.428.417 5.578 1.045 9.033 2.638 18.907 2.617 28.728-.24 2.067-.602 3.314-.964 5.27-.973h.017c1.578 0 2.882 1.269 2.889 2.892l.088 14.639c.019 4.408 2.434 8.452 6.303 10.554 3.873 2.104 8.596 1.923 12.328-.475 1.861-1.196 6.508-1.924 10.359-2.16.001.013.006.024.006.037l.04 9.501c.002.592-.478 1.076-1.07 1.079l-3.243.014c-4.079.017-7.396 3.292-7.467 7.371-.183 10.626-4.639 20.498-12.225 27.085-16.4 14.241-38.67 14.217-55.051.232-7.643-6.523-12.182-16.357-12.454-26.98zm59.27 48.881.034 8.088c.014 3.136 1.002 6.069 2.682 8.504-12.703 10.139-30.886 10.229-43.693.179 1.659-2.449 2.627-5.387 2.614-8.523l-.034-8.087c12.111 4.406 25.141 4.788 38.397-.161zm74.534 87.003c.002 2.225-.862 4.318-2.435 5.893-1.572 1.573-3.661 2.44-5.884 2.44h-169.722c-4.587 0-8.319-3.732-8.319-8.319v-27.453c0-.073-.001-.146-.003-.219-.331-11.325 5.872-21.534 15.8-26.008 7.599-3.422 22.256-6.833 40.584-9.47 19.849 20.652 53.045 20.478 72.69-.307 18.35 2.483 33.036 5.771 40.663 9.127 10.412 4.583 16.627 14.371 16.627 26.183z"/></g></svg>