<svg height="512" viewBox="0 0 59 48" width="512" xmlns="http://www.w3.org/2000/svg"><g id="Page-1" fill="none" fill-rule="evenodd"><g id="038---HDL" fill-rule="nonzero"><path id="Shape" d="m52.926 17.106c-.2034412.000478-.4021003-.0616684-.569-.178-3.337-2.312-8.437-3.616-14.357-3.672-.5522847-.0027614-.9977614-.4527153-.995-1.005s.4527153-.9977614 1.005-.995h.01c6.317.059 11.814 1.49 15.478 4.029.35867.2494208.5139152.702801.3834124 1.119723-.1305027.416922-.5165432.7008718-.9534124.701277z" fill="#e64c3c"/><path id="Shape" d="m4.017 37.99c-.34494889.0005614-.66583235-.1766994-.849-.469-1.62776382-2.5704694-1.94548992-5.7588527-.857-8.6 2.089-5.896 9.261-11.577 18.721-14.821.5224614-.1797687 1.0917313.0980386 1.2715.6205s-.0980386 1.0917313-.6205 1.2715c-8.9 3.055-15.6 8.267-17.488 13.6-.8903896 2.2651686-.64203201 4.8197569.668 6.871.19301424.3080121.20369256.6965028.02788941 1.0146525-.17580314.3181496-.51039841.5158491-.87388941.5163475z" fill="#e64c3c"/><path id="Shape" d="m48 30.68c0 9.3888407-7.6111593 17-17 17s-17-7.6111593-17-17c0-11.05 12.97-26.58 16.25-30.34.189833-.21525044.4629994-.33856217.75-.33856217s.560167.12331173.75.33856217c3.28 3.76 16.25 19.29 16.25 30.34z" fill="#f29c1f"/><g fill="#fff"><path id="Shape" d="m24 24c-.5522847 0-1 .4477153-1 1v4h-4v-4.4c0-.5522847-.4477153-1-1-1s-1 .4477153-1 1v10c0 .5522847.4477153 1 1 1s1-.4477153 1-1v-3.6h4v4c0 .5522847.4477153 1 1 1s1-.4477153 1-1v-10c0-.5522847-.4477153-1-1-1z"/><path id="Shape" d="m31 24h-3c-.5522847 0-1 .4477153-1 1v10c0 .5522847.4477153 1 1 1h3c2.209139 0 4-1.790861 4-4v-4c0-2.209139-1.790861-4-4-4zm2 8c0 1.1045695-.8954305 2-2 2h-2v-8h2c1.1045695 0 2 .8954305 2 2z"/><path id="Shape" d="m44 34h-5v-9c0-.5522847-.4477153-1-1-1s-1 .4477153-1 1v10c0 .5522847.4477153 1 1 1h6c.5522847 0 1-.4477153 1-1s-.4477153-1-1-1z"/></g><path id="Shape" d="m22.472 44.95c-.71 0-1.41-.0173333-2.1-.052-4.1283509-.1005715-8.1881274-1.0778493-11.91-2.867-.32610132-.160083-.53973908-.4844232-.55806092-.8472357-.01832185-.3628126.16155437-.707025.46986958-.8991457.30831521-.1921208.69656954-.2019281 1.01419134-.0256186 3.465622 1.65325 7.2422385 2.5533533 11.081 2.641 4.2574858.1775833 8.5194338-.2213647 12.67-1.186 4.4937914-.9947822 8.8144724-2.6529531 12.82-4.92 7.424-4.286 11.357-9.9 10.267-14.661-.2384437-1.0807644-.7489002-2.082746-1.483-2.911-.2379725-.2695582-.3129034-.6461261-.1962474-.9862496.1166559-.3401234.4069361-.5914308.7602579-.6581862s.7152813.06132.9479895.3354358c.9461712 1.0747634 1.6061688 2.3706837 1.919 3.768 1.3 5.651-3 12.1-11.214 16.844-4.1794234 2.3677689-8.6882324 4.0997744-13.378 5.139-3.644496.8375348-7.3705454 1.2688309-11.11 1.286z" fill="#e64c3c"/><path id="Shape" d="m28 15v5c0 .5522847.4477153 1 1 1h4c.5522847 0 1-.4477153 1-1v-5h1c.3787721 0 .7250352-.2140024.8944272-.5527864s.132836-.744196-.0944272-1.0472136l-4-5.33c-.1871181-.25447028-.4841388-.4047407-.8-.4047407s-.6128819.15027042-.8.4047407l-4 5.33c-.2272632.3030176-.2638192.7084296-.0944272 1.0472136s.5156551.5527864.8944272.5527864z" fill="#e64c3c"/><circle id="Oval" cx="6" cy="39" fill="#3b97d3" r="6"/><path id="Shape" d="m4 40c-.55228475 0-1-.4477153-1-1 0-1.6568542 1.34314575-3 3-3 .55228475 0 1 .4477153 1 1s-.44771525 1-1 1-1 .4477153-1 1-.44771525 1-1 1z" fill="#fff"/><circle id="Oval" cx="54" cy="17" fill="#2980ba" r="4"/></g></g></svg>