<svg id="Capa_1" enable-background="new 0 0 497 497" height="512" viewBox="0 0 497 497" width="512" xmlns="http://www.w3.org/2000/svg"><g><path d="m349.183 100.755-38.909-81.471h-267.487c-23.63 0-42.787 19.157-42.787 42.787v277.669c0 23.631 19.157 42.787 42.787 42.787h343.424c23.631 0 42.787-19.157 42.787-42.787v-201.741z" fill="#d8d8d8"/><path d="m310.279 19.279v78.757c0 22.071 17.892 39.963 39.963 39.963h78.757z" fill="#cacac8"/><path d="m31.452 209.417c0-64.487 19.263-135.243 58.01-190.132h-46.675c-23.63-.001-42.787 19.155-42.787 42.786v277.669c0 23.631 19.156 42.788 42.787 42.788h81.203c-56.88-42.967-92.538-104.613-92.538-173.111z" fill="#cacac8"/><g fill="#423e4f"><path d="m58.952 152.126c4.142 0 7.5-3.358 7.5-7.5v-31.022c.265.301 41.719 47.407 41.809 47.51l-23.339 20.541c-3.109 2.736-3.412 7.476-.675 10.585 2.74 3.114 7.48 3.408 10.585.675l23.339-20.541 20.541 23.339c2.74 3.114 7.48 3.408 10.585.675 3.109-2.736 3.412-7.476.675-10.585l-20.541-23.339 23.339-20.541c3.109-2.737 3.412-7.476.675-10.585-2.736-3.109-7.475-3.412-10.585-.675l-23.339 20.542c-2.184-2.482 10.023 11.39-34.44-39.137 14.754-1.921 26.165-14.082 26.165-28.76 0-16.008-13.57-29.032-30.25-29.032h-22.016c-.005 0-.009 0-.014 0s-.009 0-.014 0c-4.142 0-7.5 3.358-7.5 7.5v82.852c0 4.14 3.358 7.498 7.5 7.498zm22.044-82.852c8.267 0 15.25 6.426 15.25 14.032s-6.984 14.033-15.25 14.033c-3.316 0-9.466.028-14.407.053-.077-14.23-.035-10.387-.086-28.118z"/><path d="m58.952 241.014h268.88c4.142 0 7.5-3.358 7.5-7.5 0-4.143-3.358-7.5-7.5-7.5h-268.88c-4.142 0-7.5 3.357-7.5 7.5 0 4.142 3.358 7.5 7.5 7.5z"/><path d="m327.832 272.015h-268.88c-4.142 0-7.5 3.358-7.5 7.5s3.358 7.5 7.5 7.5h268.88c4.142 0 7.5-3.358 7.5-7.5s-3.358-7.5-7.5-7.5z"/><path d="m147.597 318.017h-88.645c-4.142 0-7.5 3.358-7.5 7.5s3.358 7.5 7.5 7.5h88.645c4.142 0 7.5-3.358 7.5-7.5s-3.358-7.5-7.5-7.5z"/></g><path d="m436.869 417.593-39.982 39.982c-26.887 26.867-70.411 26.856-97.287 0-26.865-26.865-26.865-70.422 0-97.287l39.982-39.982 78.709 18.578z" fill="#ff889e"/><path d="m335.328 423.85c0-34.61 16.666-68.328 42.453-94.527l-38.198-9.016-39.983 39.981c-26.865 26.865-26.865 70.422 0 97.287 11.827 11.818 26.878 18.432 42.317 19.85-4.913-15.85-6.589-33.869-6.589-53.575z" fill="#ff748f"/><path d="m476.851 377.621-39.982 39.972-97.287-97.287 39.982-39.982c26.865-26.865 70.422-26.865 97.287 0s26.865 70.422 0 97.297z" fill="#59c2e7"/><path d="m476.28 279.781c-26.907-26.307-70.037-26.135-96.715.543l-39.982 39.982 24.614 24.614c26.5-34.584 68.206-60.122 112.083-65.139z" fill="#34b5e1"/></g></svg>